<mxfile host="app.diagrams.net" modified="2024-11-23T17:24:23.527Z" agent="Mozilla/5.0 (Windows NT 10.0; Win64; x64) AppleWebKit/537.36 (KHTML, like Gecko) Chrome/131.0.0.0 Safari/537.36" version="24.4.4" etag="8jZ3lFVWf4ifuQ3kqOht" type="github">
  <diagram name="1 oldal" id="OUstxLFQrxpZzl4MRNp3">
    <mxGraphModel>
      <root>
        <mxCell id="0" />
        <mxCell id="1" parent="0" />
      </root>
    </mxGraphModel>
  </diagram>
</mxfile>
